<?xml version="1.0" encoding="UTF-8" standalone="no"?>
<!-- Generator: Adobe Illustrator 26.5.0, SVG Export Plug-In . SVG Version: 6.00 Build 0)  -->

<svg
   version="1.1"
   id="Layer_1"
   x="0px"
   y="0px"
   viewBox="0 0 512 512"
   style="enable-background:new 0 0 512 512;"
   xml:space="preserve"
   sodipodi:docname="mixcloud-vector-logo.svg"
   inkscape:version="1.4.3 (0d15f75042, 2025-12-25)"
   xmlns:inkscape="http://www.inkscape.org/namespaces/inkscape"
   xmlns:sodipodi="http://sodipodi.sourceforge.net/DTD/sodipodi-0.dtd"
   xmlns="http://www.w3.org/2000/svg"
   xmlns:svg="http://www.w3.org/2000/svg"><defs
   id="defs1" /><sodipodi:namedview
   id="namedview1"
   pagecolor="#505050"
   bordercolor="#eeeeee"
   borderopacity="1"
   inkscape:showpageshadow="0"
   inkscape:pageopacity="0"
   inkscape:pagecheckerboard="0"
   inkscape:deskcolor="#505050"
   inkscape:zoom="2.2871094"
   inkscape:cx="256"
   inkscape:cy="256"
   inkscape:window-width="2560"
   inkscape:window-height="1380"
   inkscape:window-x="0"
   inkscape:window-y="0"
   inkscape:window-maximized="1"
   inkscape:current-layer="Layer_1" />
<style
   type="text/css"
   id="style1">
	.st0{fill:#25292B;}
</style>
<g
   id="XMLID_9_"
   style="fill:#ffffff">
	<path
   id="XMLID_11_"
   class="st0"
   d="M468.13,406.84c-3.23,0-6.59-0.98-9.4-2.95c-7.86-5.19-9.96-15.86-4.63-23.57   c15.72-23.43,23.99-50.93,23.99-79.42c0-28.48-8.28-55.98-23.99-79.42c-5.19-7.86-3.23-18.38,4.63-23.57s18.38-3.09,23.57,4.63   c19.5,29.04,29.75,63.14,29.75,98.36s-10.24,69.31-29.75,98.36C478.94,404.31,473.6,406.84,468.13,406.84z"
   style="fill:#ffffff" />
	<path
   id="XMLID_12_"
   class="st0"
   d="M419.44,379.19c-3.23,0-6.59-0.98-9.54-2.95c-7.72-5.33-9.82-15.86-4.49-23.71   c10.38-15.29,15.86-33.11,15.86-51.78c0-18.52-5.47-36.34-15.86-51.78c-5.33-7.72-3.23-18.38,4.49-23.71   c7.86-5.33,18.38-3.23,23.57,4.63c14.17,21.05,21.75,45.46,21.75,70.86c0,25.4-7.58,49.81-21.75,70.86   C430.25,376.67,424.92,379.19,419.44,379.19z"
   style="fill:#ffffff" />
	<path
   id="XMLID_15_"
   class="st0"
   d="M339.75,226.82c-6.73-68.19-64.4-121.65-134.42-121.65c-57.95,0-109.44,37.18-127.82,91.48   c-43.78,6.45-77.45,44.2-77.45,89.66c0,49.95,40.69,90.64,90.92,90.64h232.64c41.95,0,76.05-34.1,76.05-76.05   C399.52,264.7,373.84,234.25,339.75,226.82z M323.47,342.85H90.83c-31.29,0-56.83-25.4-56.83-56.69s25.54-56.69,56.83-56.69   c15.15,0,29.47,5.89,40.13,16.56c6.59,6.59,17.4,6.59,24.13,0c6.59-6.59,6.59-17.4,0-24.13c-11.65-11.79-26.1-19.78-41.81-23.71   c16.14-35.5,52.06-59.21,92.04-59.21c55.7,0,101.17,45.32,101.17,100.88c0,10.8-1.68,21.47-5.05,31.57   c-2.95,8.98,1.82,18.52,10.8,21.47c1.82,0.56,3.65,0.84,5.33,0.84c7.16,0,13.75-4.49,16.14-11.65c2.24-6.73,3.93-13.61,5.05-20.49   c15.72,6.03,26.8,21.33,26.8,39.01C365.42,324.05,346.62,342.85,323.47,342.85z"
   style="fill:#ffffff" />
</g>
</svg>
